<svg xmlns="http://www.w3.org/2000/svg" xmlns:xlink="http://www.w3.org/1999/xlink" width="500" height="500" viewBox="0 0 500 500">
  <defs>
    <radialGradient id="radial-gradient" cx="0.5" cy="0.45" r="0.663" gradientUnits="objectBoundingBox">
      <stop offset="0" stop-color="#58ba8c"/>
      <stop offset="1" stop-color="#188250"/>
    </radialGradient>
    <filter id="Oval_18">
      <feOffset dy="1" input="SourceAlpha"/>
      <feGaussianBlur stdDeviation="1" result="blur"/>
      <feFlood flood-opacity="0.502" result="color"/>
      <feComposite operator="out" in="SourceGraphic" in2="blur"/>
      <feComposite operator="in" in="color"/>
      <feComposite operator="in" in2="SourceGraphic"/>
    </filter>
    <filter id="Oval_22">
      <feOffset dy="0.4" input="SourceAlpha"/>
      <feGaussianBlur stdDeviation="1" result="blur-2"/>
      <feFlood flood-opacity="0.502" result="color-2"/>
      <feComposite operator="out" in="SourceGraphic" in2="blur-2"/>
      <feComposite operator="in" in="color-2"/>
      <feComposite operator="in" in2="SourceGraphic"/>
    </filter>
    <clipPath id="clip-Royal_Cat">
      <rect width="500" height="500"/>
    </clipPath>
  </defs>
  <g id="Royal_Cat" data-name="Royal Cat" clip-path="url(#clip-Royal_Cat)">
    <rect width="500" height="500" fill="#fff"/>
    <g data-type="innerShadowGroup">
      <circle id="Oval_18-2" data-name="Oval 18" cx="249.5" cy="249.5" r="249.5" transform="translate(1 1)" fill="url(#radial-gradient)"/>
      <g transform="matrix(1, 0, 0, 1, 0, 0)" filter="url(#Oval_18)">
        <circle id="Oval_18-3" data-name="Oval 18" cx="249.5" cy="249.5" r="249.5" transform="translate(1 1)" fill="#fff"/>
      </g>
    </g>
    <g id="Group_22" data-name="Group 22" transform="translate(94.337 95.588)">
      <g id="Head" transform="translate(8.334 7.46)">
        <g id="Ears" transform="translate(10.919 6.5)">
          <path id="Triangle_3" data-name="Triangle 3" d="M0,0,81.525,35.334,15.517,66.924,0,0Z" transform="translate(1.277 0.939)" fill="#231f20"/>
        </g>
        <g id="Ears_2" data-name="Ears 2" transform="matrix(0.996, 0.087, -0.087, 0.996, 291, 9)">
          <path id="Triangle_3-2" data-name="Triangle 3" d="M-91.766,39.437l66.2,37.945s5.706-23.342,12.241-37.945C-8.152,27.887,0,0,0,0Z" transform="translate(-0.418 0.09)" fill="#231f20"/>
        </g>
        <path id="Oval_5" data-name="Oval 5" d="M282.391,116.656C282.391,52.229,219.176,0,141.2,0S0,52.229,0,116.656,63.215,266.6,141.2,266.6,282.391,181.083,282.391,116.656Z" transform="translate(0.712 26.248)" fill="#231f20"/>
        <g id="Oval_22-2" data-name="Oval 22">
          <path id="Oval_22-3" data-name="Oval 22" d="M196.933,169.527c0-11.076-26.522-30.466-37.517-61.938C143.114,60.923,136.631,0,104.153,0,74.269,0,65.7,54.49,46.1,97.693,30.025,133.111,0,157.139,0,169.527c0,27.5,44.085,73.315,98.466,73.315S196.933,197.026,196.933,169.527Z" transform="translate(40.732 43.946)" fill="rgba(255,255,255,0.94)"/>
          <g transform="matrix(1, 0, 0, 1, -102.67, -103.05)" filter="url(#Oval_22)">
            <path id="Oval_22-4" data-name="Oval 22" d="M196.933,169.527c0-11.076-26.522-30.466-37.517-61.938C143.114,60.923,136.631,0,104.153,0,74.269,0,65.7,54.49,46.1,97.693,30.025,133.111,0,157.139,0,169.527c0,27.5,44.085,73.315,98.466,73.315S196.933,197.026,196.933,169.527Z" transform="translate(143.4 146.99)" fill="#fff"/>
          </g>
        </g>
        <path id="nose" d="M0,4.238C.069,6.207,8.389,16.814,18.183,16.472S35.536,4.969,35.467,3,27.4-.288,17.609.054-.068,2.269,0,4.238Z" transform="matrix(1, 0.017, -0.017, 1, 116.802, 171.451)" fill="#231f20"/>
      </g>
      <path id="Oval_86" data-name="Oval 86" d="M72.216,43.117c.312,0-3.957,3.957-6.784-3.957-1.208-3.383-4.523-14.7,6.784-21.482,1.621-.973,6.784-1.131,15.829,0,5.2.65,34.484,11.872,52.009,52.574,1.006,2.336,2.586,16.965,3.957,19.221,4.248,6.989,8.6-3.32,7.914-8.48-.484-3.661-7.222-21.829-10.176-27.7-5.343-10.621-18.819-24.874-27.135-31.658C93.133,4.11,61.306-.05,60.91.153,60.584.319,31.789-1.5,25.295,4.11c-.208.179-15.829,5.653-18.09,9.045S-9.076,50.832,9.466,44.247c23.178-8.231,20.111-18.54,23.178-14.7,6.784,14.7,14.891,16.3,15.263,16.959.674,1.2,6.95,5.383,13,6.784,5.583,1.292,10.99-.155,11.306,0,.4.194,8.48-1.131,13.568-6.784s5.653-6.5,5.653-12.437a10.741,10.741,0,0,0-21.482,0C69.955,36.979,72.216,43.117,72.216,43.117Z" transform="translate(68 56.192) rotate(-16)" fill="#231f20"/>
      <g id="eyes" transform="translate(168.439 105)">
        <circle id="Oval_86-2" data-name="Oval 86" cx="36.495" cy="36.495" r="36.495" transform="translate(0.757 0.002)" fill="#fff" stroke="#231f20" stroke-miterlimit="10" stroke-width="4"/>
        <ellipse id="Oval_87" data-name="Oval 87" cx="25.726" cy="28.5" rx="25.726" ry="28.5" transform="translate(1.549 12.778)" fill="#231f20"/>
      </g>
      <path id="Oval_85" data-name="Oval 85" d="M178.685,83.2c-13.09-3.615-41.591-21.773-53.789-37.753-6.9,13.866-28.977,25.179-43.172,29.1C68.741,78.129,54.5,85,36.767,77.875,3.688,64.576-5.739,34.419,3.179,40.572s16.791,5.145,36.114-10.9C55.758,16,75.826,3.861,94.618,4.846a35.037,35.037,0,0,1,27.119,14.672C126.632,8.667,137.983.742,151.58.029c18.793-.985,52.289,23.242,68.754,36.915,19.323,16.048,48.8,22.323,57.715,16.169s-3.234,13.216-36.98,26.817c-9.132,3.681-25.332,5.417-39.573,5.417C192.235,85.347,183.8,84.612,178.685,83.2Z" transform="matrix(0.999, 0.035, -0.035, 0.999, 21.576, 185.121)" fill="#282123"/>
      <path id="Line" d="M-39.78,4.065C-47.97,0-31.59,14-21.645,14S0,0,0,0-31.59,8.129-39.78,4.065Z" transform="translate(166.95 249.136) rotate(11)" fill="none" stroke="#282123" stroke-linecap="square" stroke-miterlimit="10" stroke-width="2.88"/>
    </g>
  </g>
</svg>
