<svg width="54" height="54" viewBox="0 0 54 54" fill="none" xmlns="http://www.w3.org/2000/svg">
<circle cx="27" cy="27" r="27" fill="white"/>
<path d="M35.5863 20.414C35.7166 20.2829 35.8721 20.1788 36.0437 20.1077C36.2153 20.0366 36.3996 20 36.5857 20C36.7719 20 36.9562 20.0366 37.1278 20.1077C37.2994 20.1788 37.4549 20.2829 37.5852 20.414C38.1312 20.9581 38.1388 21.8372 37.6043 22.3906L26.3156 35.5492C26.1874 35.688 26.0319 35.7995 25.8585 35.877C25.6851 35.9545 25.4975 35.9962 25.3072 35.9998C25.1169 36.0033 24.9278 35.9685 24.7516 35.8975C24.5754 35.8265 24.4157 35.7208 24.2824 35.5869L17.4133 28.7233C17.1484 28.4569 17 28.0987 17 27.7256C17 27.3525 17.1484 26.9943 17.4133 26.7279C17.5436 26.5968 17.6991 26.4927 17.8707 26.4216C18.0423 26.3505 18.2266 26.3139 18.4127 26.3139C18.5989 26.3139 18.7832 26.3505 18.9548 26.4216C19.1264 26.4927 19.2819 26.5968 19.4122 26.7279L25.2388 32.5504L35.5481 20.4554C35.56 20.4409 35.5728 20.4271 35.5863 20.414Z" fill="#00D667"/>
</svg>
